<svg width="178.000000" height="145.000000" viewBox="0 0 178 145" fill="none" xmlns="http://www.w3.org/2000/svg" xmlns:xlink="http://www.w3.org/1999/xlink">
	<desc>
			Created with Pixso.
	</desc>
	<defs>
		<linearGradient id="paint_linear_0_6104_0" x1="98.000000" y1="97.500000" x2="178.000000" y2="97.500000" gradientUnits="userSpaceOnUse">
			<stop stop-color="#FDD966"/>
			<stop offset="0.685406" stop-color="#BCD77E"/>
		</linearGradient>
	</defs>
	<path id="Vector" d="M56.26 74.32L56.26 96.45L51.38 96.45C50.2 96.45 49.14 95.4 49.14 94.35L49.14 76.56C49.14 75.37 50.2 74.32 51.38 74.32L56.26 74.32Z" fill="#01457A" fill-opacity="1.000000" fill-rule="nonzero"/>
	<path id="Vector" d="M121.08 5.28L120.69 8.83L98.68 6.2L99.08 2.64C99.21 0.93 100.79 -0.13 102.37 0.01L118.58 1.98C120.16 2.25 121.35 3.7 121.08 5.28L121.08 5.28Z" fill="#01457A" fill-opacity="1.000000" fill-rule="nonzero"/>
	<path id="Vector" d="M125.17 18.58L117 87.36C115.94 95.8 108.96 101.99 100.53 101.99L65.35 101.99C63.37 101.99 61.79 100.41 61.79 98.43L61.79 72.47C61.79 70.5 63.37 68.92 65.35 68.92L80.1 68.92L79.31 75.9C79.18 77.48 80.24 78.8 81.82 79.06L82.21 79.06C83.66 79.06 84.72 78.01 84.98 76.56L92.36 14.76C92.62 12.79 94.34 11.47 96.31 11.6L122.27 14.63C123.98 14.76 125.43 16.61 125.17 18.58L125.17 18.58Z" fill="#01457A" fill-opacity="1.000000" fill-rule="nonzero"/>
	<path id="Vector" d="M4.61 80.77C7.24 80.77 9.22 82.88 9.22 85.39C9.22 88.02 7.11 90 4.61 90C1.97 90 0 87.89 0 85.39C0 82.88 2.1 80.77 4.61 80.77Z" fill="#01457A" fill-opacity="1.000000" fill-rule="nonzero"/>
	<path id="Vector" d="M18.7 81.83C20.81 81.83 22.39 83.54 22.39 85.52C22.39 87.63 20.68 89.21 18.7 89.21C16.6 89.21 15.02 87.49 15.02 85.52C14.88 83.41 16.6 81.83 18.7 81.83Z" fill="#01457A" fill-opacity="1.000000" fill-rule="nonzero"/>
	<path id="Vector" d="M33.59 85.52C33.59 87.05 32.36 88.29 30.83 88.29C29.3 88.29 28.06 87.05 28.06 85.52C28.06 83.99 29.3 82.75 30.83 82.75C32.36 82.75 33.59 83.99 33.59 85.52Z" fill="#01457A" fill-opacity="1.000000" fill-rule="nonzero"/>
	<path id="Vector" d="M41.1 83.67C42.16 83.67 42.95 84.46 42.95 85.52C42.95 86.57 42.16 87.36 41.1 87.36C40.05 87.36 39.26 86.57 39.26 85.52C39.26 84.46 40.05 83.67 41.1 83.67Z" fill="#01457A" fill-opacity="1.000000" fill-rule="nonzero"/>
	<path id="Vector" d="M5.4 74.85C2.89 74.19 1.44 71.68 2.1 69.18C2.76 66.68 5.27 65.23 7.77 65.89C10.27 66.54 11.72 69.18 11.06 71.55C10.54 74.05 7.9 75.5 5.4 74.85Z" fill="#01457A" fill-opacity="1.000000" fill-rule="nonzero"/>
	<path id="Vector" d="M19.23 77.61C17.26 77.08 16.07 74.98 16.6 73C17.12 71.02 19.23 69.84 21.21 70.37C23.18 70.89 24.37 73 23.84 74.98C23.32 76.95 21.21 78.14 19.23 77.61Z" fill="#01457A" fill-opacity="1.000000" fill-rule="nonzero"/>
	<path id="Vector" d="M31.22 79.85C29.77 79.46 28.85 77.88 29.25 76.43C29.64 74.98 31.22 74.05 32.67 74.45C34.12 74.85 35.04 76.43 34.65 77.88C34.25 79.33 32.67 80.25 31.22 79.85Z" fill="#01457A" fill-opacity="1.000000" fill-rule="nonzero"/>
	<path id="Vector" d="M41.37 81.57C40.31 81.3 39.79 80.25 40.05 79.33C40.31 78.27 41.37 77.74 42.29 78.01C43.34 78.27 43.87 79.33 43.61 80.25C43.34 81.3 42.29 81.83 41.37 81.57Z" fill="#01457A" fill-opacity="1.000000" fill-rule="nonzero"/>
	<path id="Vector" d="M5.4 96.06C7.9 95.4 10.4 96.85 11.06 99.35C11.72 101.86 10.27 104.36 7.77 105.02C5.27 105.68 2.76 104.23 2.1 101.73C1.44 99.35 2.89 96.85 5.4 96.06Z" fill="#01457A" fill-opacity="1.000000" fill-rule="nonzero"/>
	<path id="Vector" d="M19.23 93.42C21.21 92.9 23.32 94.08 23.84 96.06C24.37 98.04 23.18 100.14 21.21 100.67C19.23 101.2 17.12 100.01 16.6 98.04C16.07 95.93 17.26 93.95 19.23 93.42Z" fill="#01457A" fill-opacity="1.000000" fill-rule="nonzero"/>
	<path id="Vector" d="M31.22 91.18C32.67 90.79 34.25 91.71 34.65 93.16C35.04 94.61 34.12 96.19 32.67 96.59C31.22 96.98 29.64 96.06 29.25 94.61C28.85 93.03 29.64 91.58 31.22 91.18Z" fill="#01457A" fill-opacity="1.000000" fill-rule="nonzero"/>
	<path id="Vector" d="M41.37 89.34C42.42 89.08 43.34 89.6 43.61 90.66C43.87 91.71 43.34 92.63 42.29 92.9C41.24 93.16 40.31 92.63 40.05 91.58C39.79 90.66 40.31 89.6 41.37 89.34Z" fill="#01457A" fill-opacity="1.000000" fill-rule="nonzero"/>
	<circle id="Ellipse 1" cx="138.000000" cy="105.000000" r="40.000000" fill="url(#paint_linear_0_6104_0)" fill-opacity="1.000000"/>
	<path id="2" d="M126.19 122L150.14 122L150.14 115.9L135.21 115.9L135.21 115.56L139.63 111.44Q142.65 108.65 144.79 106.35Q146.92 104.04 148.04 101.7Q148.16 101.45 148.27 101.2Q149.18 99.04 149.18 96.51Q149.18 94.65 148.52 93.06Q148.25 92.4 147.86 91.78Q147.61 91.39 147.32 91.02Q146.08 89.45 144.12 88.47Q141.69 87.25 138.33 87.25Q135.26 87.25 133.07 87.94Q130.89 88.63 129.24 89.75Q127.58 90.85 126.1 92.14L130.03 96.8Q132.1 95.11 133.96 94.21Q135.42 93.5 136.95 93.34Q137.37 93.3 137.8 93.3Q139.59 93.3 140.68 94.16Q140.77 94.23 140.85 94.3Q140.95 94.39 141.03 94.48Q141.97 95.49 141.97 97.37Q141.97 98.44 141.69 99.42Q141.52 99.98 141.26 100.52Q140.54 101.98 138.95 103.78Q137.37 105.58 134.78 108.27L126.19 116.96L126.19 122Z" fill="#01457A" fill-opacity="1.000000" fill-rule="evenodd"/>
</svg>
