<svg width="178.000000" height="145.000000" viewBox="0 0 178 145" fill="none" xmlns="http://www.w3.org/2000/svg" xmlns:xlink="http://www.w3.org/1999/xlink">
	<desc>
			Created with Pixso.
	</desc>
	<defs>
		<linearGradient id="paint_linear_0_6126_0" x1="98.000000" y1="97.000000" x2="178.000000" y2="97.000000" gradientUnits="userSpaceOnUse">
			<stop stop-color="#FDD966"/>
			<stop offset="0.685406" stop-color="#BCD77E"/>
		</linearGradient>
	</defs>
	<path id="Vector" d="M56.26 73.82L56.26 95.95L51.38 95.95C50.2 95.95 49.14 94.9 49.14 93.85L49.14 76.06C49.14 74.87 50.2 73.82 51.38 73.82L56.26 73.82Z" fill="#01457A" fill-opacity="1.000000" fill-rule="nonzero"/>
	<path id="Vector" d="M121.08 4.78L120.69 8.33L98.68 5.7L99.08 2.14C99.21 0.43 100.79 -0.63 102.37 -0.49L118.58 1.48C120.16 1.75 121.35 3.2 121.08 4.78L121.08 4.78Z" fill="#01457A" fill-opacity="1.000000" fill-rule="nonzero"/>
	<path id="Vector" d="M125.17 18.08L117 86.86C115.94 95.3 108.96 101.49 100.53 101.49L65.35 101.49C63.37 101.49 61.79 99.91 61.79 97.93L61.79 71.97C61.79 70 63.37 68.42 65.35 68.42L80.11 68.42L79.31 75.4C79.18 76.98 80.24 78.3 81.82 78.56L82.21 78.56C83.66 78.56 84.72 77.51 84.98 76.06L92.36 14.26C92.62 12.29 94.34 10.97 96.31 11.1L122.27 14.13C123.98 14.26 125.43 16.11 125.17 18.08L125.17 18.08Z" fill="#01457A" fill-opacity="1.000000" fill-rule="nonzero"/>
	<path id="Vector" d="M4.61 80.27C7.24 80.27 9.22 82.38 9.22 84.89C9.22 87.52 7.11 89.5 4.61 89.5C1.97 89.5 0 87.39 0 84.89C0 82.38 2.1 80.27 4.61 80.27Z" fill="#01457A" fill-opacity="1.000000" fill-rule="nonzero"/>
	<path id="Vector" d="M18.7 81.33C20.81 81.33 22.39 83.04 22.39 85.02C22.39 87.13 20.68 88.71 18.7 88.71C16.6 88.71 15.02 86.99 15.02 85.02C14.88 82.91 16.6 81.33 18.7 81.33Z" fill="#01457A" fill-opacity="1.000000" fill-rule="nonzero"/>
	<path id="Vector" d="M33.59 85.02C33.59 86.55 32.36 87.79 30.83 87.79C29.3 87.79 28.06 86.55 28.06 85.02C28.06 83.49 29.3 82.25 30.83 82.25C32.36 82.25 33.59 83.49 33.59 85.02Z" fill="#01457A" fill-opacity="1.000000" fill-rule="nonzero"/>
	<path id="Vector" d="M41.1 83.17C42.16 83.17 42.95 83.96 42.95 85.02C42.95 86.07 42.16 86.86 41.1 86.86C40.05 86.86 39.26 86.07 39.26 85.02C39.26 83.96 40.05 83.17 41.1 83.17Z" fill="#01457A" fill-opacity="1.000000" fill-rule="nonzero"/>
	<path id="Vector" d="M5.4 74.35C2.89 73.69 1.44 71.18 2.1 68.68C2.76 66.18 5.27 64.73 7.77 65.39C10.27 66.04 11.72 68.68 11.06 71.05C10.54 73.55 7.9 75 5.4 74.35Z" fill="#01457A" fill-opacity="1.000000" fill-rule="nonzero"/>
	<path id="Vector" d="M19.23 77.11C17.26 76.58 16.07 74.48 16.6 72.5C17.12 70.52 19.23 69.34 21.21 69.87C23.18 70.39 24.37 72.5 23.84 74.48C23.32 76.45 21.21 77.64 19.23 77.11Z" fill="#01457A" fill-opacity="1.000000" fill-rule="nonzero"/>
	<path id="Vector" d="M31.22 79.35C29.77 78.96 28.85 77.38 29.25 75.93C29.64 74.48 31.22 73.55 32.67 73.95C34.12 74.35 35.04 75.93 34.65 77.38C34.25 78.83 32.67 79.75 31.22 79.35Z" fill="#01457A" fill-opacity="1.000000" fill-rule="nonzero"/>
	<path id="Vector" d="M41.37 81.07C40.31 80.8 39.79 79.75 40.05 78.83C40.31 77.77 41.37 77.24 42.29 77.51C43.34 77.77 43.87 78.83 43.61 79.75C43.34 80.8 42.29 81.33 41.37 81.07Z" fill="#01457A" fill-opacity="1.000000" fill-rule="nonzero"/>
	<path id="Vector" d="M5.4 95.56C7.9 94.9 10.4 96.35 11.06 98.85C11.72 101.36 10.27 103.86 7.77 104.52C5.27 105.18 2.76 103.73 2.1 101.23C1.44 98.85 2.89 96.35 5.4 95.56Z" fill="#01457A" fill-opacity="1.000000" fill-rule="nonzero"/>
	<path id="Vector" d="M19.23 92.92C21.21 92.4 23.32 93.58 23.84 95.56C24.37 97.54 23.18 99.64 21.21 100.17C19.23 100.7 17.12 99.51 16.6 97.54C16.07 95.43 17.26 93.45 19.23 92.92Z" fill="#01457A" fill-opacity="1.000000" fill-rule="nonzero"/>
	<path id="Vector" d="M31.22 90.68C32.67 90.29 34.25 91.21 34.65 92.66C35.04 94.11 34.12 95.69 32.67 96.09C31.22 96.48 29.64 95.56 29.25 94.11C28.85 92.53 29.64 91.08 31.22 90.68Z" fill="#01457A" fill-opacity="1.000000" fill-rule="nonzero"/>
	<path id="Vector" d="M41.37 88.84C42.42 88.58 43.34 89.1 43.61 90.16C43.87 91.21 43.34 92.13 42.29 92.4C41.24 92.66 40.31 92.13 40.05 91.08C39.79 90.16 40.31 89.1 41.37 88.84Z" fill="#01457A" fill-opacity="1.000000" fill-rule="nonzero"/>
	<circle id="Ellipse 1" cx="138.000000" cy="104.500000" r="40.000000" fill="url(#paint_linear_0_6126_0)" fill-opacity="1.000000"/>
	<path id="3" d="M147.52 99.53Q148.79 97.65 148.79 94.91Q148.79 92.8 147.89 91.22Q147.12 89.86 145.7 88.88Q142.61 86.75 137.32 86.75Q133.58 86.75 130.87 87.71Q128.16 88.66 126.14 90.1L129.49 95.09Q130.75 94.28 132.54 93.44Q134.35 92.6 136.79 92.6Q139.43 92.6 140.56 93.63Q140.83 93.88 141.04 94.18Q141.69 95.11 141.69 96.49Q141.69 97.71 141.19 98.67Q141.14 98.77 141.08 98.87Q140.49 99.9 138.83 100.5Q137.18 101.09 134 101.09L131.37 101.09L131.37 106.66L133.96 106.66Q137.18 106.66 138.97 107.16Q140.78 107.67 141.49 108.65Q141.57 108.76 141.64 108.87Q142.22 109.79 142.22 111.08Q142.22 112.89 141.37 114.1Q141.07 114.52 140.66 114.87Q139.1 116.21 135.21 116.21Q133.15 116.21 130.72 115.64Q128.97 115.22 127.33 114.53Q126.7 114.26 126.1 113.96L126.1 120.1Q130.41 121.98 135.97 121.98Q140.78 121.98 143.83 120.6Q146.84 119.25 148.3 116.92Q148.32 116.89 148.34 116.87Q148.76 116.18 149.06 115.44Q149.8 113.63 149.8 111.51Q149.8 109.01 148.66 107.26Q148.24 106.62 147.67 106.09Q145.54 104.07 141.4 103.59L141.4 103.45Q143.75 102.87 145.53 101.54Q146.13 101.09 146.66 100.57Q147.15 100.09 147.52 99.53Z" fill="#01457A" fill-opacity="1.000000" fill-rule="evenodd"/>
</svg>
