<svg width="45.000000" height="45.000000" viewBox="0 0 45 45" fill="none" xmlns="http://www.w3.org/2000/svg" xmlns:xlink="http://www.w3.org/1999/xlink">
	<desc>
			Created with Pixso.
	</desc>
	<defs/>
	<path id="Vector" d="M38 37.5C46.68 28.82 46.68 14.7 38 6.02C33.79 1.81 28.2 -0.5 22.26 -0.5C16.31 -0.5 10.72 1.81 6.52 6.02C2.31 10.22 0 15.81 0 21.76C0 27.7 2.31 33.29 6.52 37.5C10.72 41.7 16.31 44.02 22.26 44.02C28.2 44.02 33.79 41.7 38 37.5ZM7.64 36.38C3.73 32.47 1.58 27.28 1.58 21.76C1.58 16.23 3.73 11.04 7.64 7.14C11.54 3.23 16.73 1.08 22.26 1.08C27.78 1.08 32.97 3.23 36.88 7.14C44.94 15.2 44.94 28.32 36.88 36.38C32.97 40.28 27.78 42.43 22.26 42.43C16.73 42.43 11.54 40.28 7.64 36.38Z" fill="#01457A" fill-opacity="1.000000" fill-rule="nonzero"/>
	<path id="Vector" d="M20.78 24.35L33.14 11.99L33.14 17.09C33.14 17.52 33.5 17.88 33.94 17.88C34.37 17.88 34.73 17.52 34.73 17.09L34.73 10.08C34.73 9.98 34.71 9.88 34.67 9.79C34.67 9.79 34.67 9.78 34.67 9.78C34.59 9.58 34.43 9.43 34.24 9.35C34.23 9.35 34.23 9.34 34.22 9.34C34.14 9.31 34.04 9.29 33.94 9.29L26.93 9.29C26.49 9.29 26.14 9.64 26.14 10.08C26.14 10.52 26.49 10.87 26.93 10.87L32.02 10.87L19.06 23.83L20.23 29.67L13.52 36.38C13.21 36.69 13.21 37.19 13.52 37.5C13.68 37.65 13.88 37.73 14.08 37.73C14.29 37.73 14.49 37.65 14.64 37.5L21.95 30.19L20.78 24.35Z" fill="#01457A" fill-opacity="1.000000" fill-rule="nonzero"/>
</svg>
