<svg width="40.000000" height="38.000000" viewBox="0 0 40 38" fill="none" xmlns="http://www.w3.org/2000/svg" xmlns:xlink="http://www.w3.org/1999/xlink">
	<defs/>
	<path id="Vector" d="M32.74 37.34L6.35 37.34C2.76 37.34 -0.16 34.43 -0.16 30.83C-0.16 28.6 2.5 27.23 3.36 26.8L14.06 22.09C14.92 21.92 15.26 21.66 15.26 20.47C14.32 19.35 10.55 14.64 10.55 10.61C10.55 4.45 14.66 -0.52 19.8 -0.52C24.94 -0.52 29.05 4.45 29.05 10.53C29.05 14.55 25.11 19.35 24.17 20.47C24.08 21.75 24.34 21.92 25.11 22.18L35.65 25.86C37.45 26.55 39.16 28.94 39.16 30.74C39.25 34.43 36.33 37.34 32.74 37.34ZM14.58 23.81L4.04 28.43C2.84 29.03 1.56 29.97 1.56 30.91C1.56 33.57 3.7 35.71 6.35 35.71L32.74 35.71C35.39 35.71 37.53 33.57 37.53 30.91C37.53 29.8 36.25 28.09 35.13 27.66L24.68 23.89C22.71 23.21 22.37 21.92 22.54 20.12L22.54 19.87L22.71 19.69C22.8 19.61 27.34 14.47 27.34 10.7C27.34 5.65 23.91 1.36 19.8 1.36C15.69 1.36 12.26 5.65 12.26 10.79C12.26 14.55 16.72 19.69 16.72 19.69L16.89 19.95L16.89 20.21C17.06 22.26 16.37 23.29 14.58 23.81Z" fill="#01457A" fill-opacity="1.000000" fill-rule="nonzero"/>
</svg>
