<svg width="99.000000" height="130.000000" viewBox="0 0 99 130" fill="none" xmlns="http://www.w3.org/2000/svg" xmlns:xlink="http://www.w3.org/1999/xlink">
	<defs/>
	<path id="Vector" d="M59.08 50.82C70.88 50.82 78.42 39.4 79.33 30.29C85.83 28.75 92.03 15.07 86.47 16.3C83.83 16.85 82.26 14.51 79.7 10.3C76.9 5.71 73.42 0 66.48 0C62.18 0 59.81 1.08 58.64 1.88C56.88 1.57 53.04 1.32 49.71 4.08C46.33 6.88 44.54 11.89 44.32 18.93C43.4 19.63 42.66 20.89 42.22 22.57C41.38 25.77 41.73 30.06 44.3 32.54C44.61 39.4 47.95 50.82 59.08 50.82ZM59.08 46.76C48.16 46.76 47.98 32.13 47.98 31.51C47.98 30.81 47.65 30.16 47.12 29.79C45.07 28.38 45.18 23.81 46.34 22.36C50 22.47 49.05 24.89 51.18 24.34C54.53 23.46 57.25 21.15 58.87 19.46C61.35 22.94 67.06 29.48 75.59 30.39C74.66 37.08 69.15 46.76 59.08 46.76ZM51.91 7.35C54.81 4.92 58.54 6.01 58.57 6.02C60.41 6.59 59.96 4.06 66.48 4.06C71.44 4.06 73.96 8.19 76.63 12.57C78.59 15.79 80.78 19.33 84.08 20.23C82.9 22.81 80.7 26.43 77.58 26.43C67 26.43 60.72 15.32 60.66 15.21C59.98 13.97 58.41 13.92 57.63 14.99C57.6 15.04 54.95 18.65 51.29 20.07C50.61 19.46 49.55 18.81 48.03 18.49C48.26 13.07 49.56 9.32 51.91 7.35Z" fill="#01457A" fill-opacity="1.000000" fill-rule="evenodd"/>
	<path id="Vector" d="M93.65 59.59C91.28 55.29 80.14 47.27 78.44 46.42C77.43 45.92 76.2 46.32 75.69 47.32C75.18 48.31 75.58 49.53 76.59 50.04C78.21 50.85 88.34 58.42 90.05 61.53C91.16 63.55 92.79 79.02 93.8 93.41C90.59 94.27 82.87 95.91 76.79 93.86C79.81 86.69 82.21 80.86 83.63 72.93C83.82 71.83 83.08 70.77 81.97 70.58C80.83 70.38 79.79 71.12 79.59 72.22C78.21 79.94 75.78 85.72 73.2 91.85C71.53 95.79 69.85 99.8 68.46 104.36C68.46 104.37 68.45 104.38 68.45 104.39C66.57 110.59 65.22 117.81 65.22 127.35C65.22 128.46 66.14 129.37 67.27 129.37C68.41 129.37 69.32 128.46 69.32 127.35C69.32 123.99 69.5 120.96 69.8 118.16C70.58 123.49 71.35 127.45 71.41 127.73C71.59 128.7 72.45 129.37 73.41 129.37C73.54 129.37 73.67 129.36 73.8 129.34C74.91 129.13 75.64 128.06 75.42 126.96C75.4 126.85 73.2 115.51 72.47 105.25C73.29 102.57 74.24 100.07 75.23 97.6C77.93 98.55 80.82 98.91 83.59 98.91C90.3 98.91 96.24 96.93 96.61 96.81C97.49 96.51 98.05 95.67 97.99 94.76C97.65 89.57 95.81 63.52 93.65 59.59Z" fill="#01457A" fill-opacity="1.000000" fill-rule="evenodd"/>
	<path id="Vector" d="M69.9 76.14C69.9 73.09 67.56 70 62.31 70C56.07 70 36.94 79.04 25.8 84.59C26.11 83.69 26.37 82.88 26.57 82.24C28.18 81.93 27.62 81.24 35.49 66.93C36.74 64.57 33.44 62.54 32.19 64.89L25.14 78.21C16.87 78.07 10.11 72.06 7.71 69.63C12.06 61.07 23.18 42.61 32.19 41.32C37.68 40.54 40.87 41.72 40.91 41.73C41.89 42.11 42.97 41.57 43.33 40.51C43.69 39.45 43.19 38.27 42.2 37.89C42.04 37.82 38.19 36.34 31.69 37.27C18.3 39.17 4.28 67.84 3.69 69.06C3.32 69.81 3.43 70.74 3.97 71.38C4.32 71.8 11.92 80.69 22.6 82.1C22.09 83.63 21.39 85.61 20.68 87.16C19.31 87.86 18.32 88.38 17.83 88.63C16.89 89.12 16.49 90.35 16.95 91.36C17.4 92.38 18.53 92.81 19.48 92.32C29.21 87.25 55.86 74.1 62.31 74.1C64.07 74.1 66.11 74.63 66.11 76.14C66.11 87.64 19.63 107.24 12.96 107.24C8.26 107.24 3.47 100.75 3.47 97.13C3.47 93.19 5.55 86.79 6.79 82.97C6.8 82.76 8.22 80.03 5.99 79.2C3.77 78.38 3.34 81.42 3.2 81.62C1.89 85.69 -0.32 92.5 -0.32 97.13C-0.32 103.04 5.9 110.88 12.43 111.29C11.93 115.16 11.06 122.53 11.06 127.33C11.06 128.46 11.92 129.37 12.96 129.37C14.01 129.37 14.86 128.46 14.86 127.33C14.86 122.31 15.9 113.97 16.34 110.72C29.5 107.31 69.9 90.02 69.9 76.14Z" fill="#01457A" fill-opacity="1.000000" fill-rule="evenodd"/>
	<path id="Vector" d="M91.12 116.38L91.12 103.65C91.12 102.55 90.56 101.65 89.88 101.65C89.19 101.65 88.63 102.55 88.63 103.65L88.63 116.38C88.63 121.19 90.85 128.02 90.95 128.3C91.72 130.63 93.93 128.79 93.15 126.44C92.59 124.72 91.12 119.56 91.12 116.38Z" fill="#01457A" fill-opacity="1.000000" fill-rule="evenodd"/>
	<path id="Vector" d="M54.43 68.93C56.65 67.48 59.81 67.01 62.68 67.7C63.69 67.94 64.78 67.56 65.12 66.86C65.46 66.15 64.93 65.38 63.93 65.14C59.72 64.13 55.09 64.82 51.83 66.95C49.94 68.18 52.6 70.12 54.43 68.93Z" fill="#01457A" fill-opacity="1.000000" fill-rule="evenodd"/>
	<path id="Vector" d="M62.81 92.92C61.66 94.41 59.52 95.04 57.61 94.45C56.92 94.23 56.17 94.56 55.93 95.18C55.69 95.79 56.06 96.47 56.75 96.68C57.51 96.91 58.3 97.03 59.08 97.03C61.39 97.03 63.63 96.03 64.99 94.26C65.41 93.72 65.25 92.98 64.65 92.61C64.05 92.25 63.22 92.39 62.81 92.92Z" fill="#01457A" fill-opacity="1.000000" fill-rule="evenodd"/>
	<path id="Vector" d="M69.4 97.78C68.68 96.85 67.45 96.77 66.65 97.62C61.85 102.64 54.83 103.1 49.58 98.73C48.7 98 47.49 98.24 46.86 99.26C46.23 100.28 46.43 101.7 47.31 102.43C50.4 105 53.98 106.27 57.53 106.27C61.73 106.27 65.92 104.49 69.26 100.99C70.06 100.15 70.12 98.72 69.4 97.78Z" fill="#01457A" fill-opacity="1.000000" fill-rule="evenodd"/>
	<path id="Vector" d="M55.85 57.39C55.78 56.22 54.97 55.35 54.08 55.45C48.86 56.01 44.23 60.16 41.99 66.28C41.06 68.83 44.03 70.61 44.95 68.09C46.7 63.33 50.3 60.1 54.36 59.67C55.25 59.57 55.92 58.55 55.85 57.39Z" fill="#01457A" fill-opacity="1.000000" fill-rule="evenodd"/>
</svg>
