<svg width="118.000000" height="134.000000" viewBox="0 0 118 134" fill="none" xmlns="http://www.w3.org/2000/svg" xmlns:xlink="http://www.w3.org/1999/xlink">
	<defs/>
	<path id="Vector" d="M51.66 131.85C51.7 133.05 52.71 133.99 53.94 133.99L54.01 133.99C55.26 133.96 56.25 132.93 56.21 131.71C55.92 124.87 54.59 118.1 52.27 111.63C56.39 111.93 60.54 111.93 64.66 111.63C62.35 118.11 61.04 124.88 60.76 131.73C60.73 132.95 61.73 133.96 62.98 133.99C64.24 134.03 65.28 133.06 65.31 131.83C65.58 125.43 66.81 119.1 68.97 113.05C69.78 110.74 68.51 108.22 66.13 107.43C65.56 107.24 64.97 107.17 64.37 107.21C60.46 107.48 56.54 107.48 52.63 107.21C50.12 107.04 47.95 108.89 47.79 111.33C47.74 111.92 47.82 112.51 48.02 113.06C50.17 119.12 51.39 125.45 51.66 131.85Z" fill="#01457A" fill-opacity="1.000000" fill-rule="evenodd"/>
	<path id="Vector" d="M116.86 8.86C116.09 7.99 114.85 7.99 114.09 8.87C110.67 13.14 108.11 18.2 106.58 23.71C103.65 19.8 100.29 16.32 96.59 13.35C101.74 11.48 106.39 8.15 110.08 3.67C110.78 2.72 110.66 1.31 109.83 0.52C109 -0.26 107.77 -0.14 107.08 0.79C104.23 4.64 99.28 7.82 92.4 10.26C82.12 3.46 70.42 -0.08 58.52 0C46.62 -0.08 34.92 3.46 24.64 10.27C17.75 7.83 12.8 4.65 9.94 0.79C9.24 -0.15 8 -0.26 7.18 0.54C6.36 1.34 6.25 2.72 6.94 3.67C10.64 8.15 15.29 11.49 20.45 13.35C16.75 16.33 13.39 19.82 10.45 23.74C8.93 18.22 6.36 13.14 2.94 8.87C2.2 7.97 0.96 7.92 0.16 8.75C-0.63 9.6 -0.68 11.01 0.06 11.91C0.09 11.94 0.12 11.98 0.15 12.01C3.7 16.61 6.23 22.09 7.55 28.01C2.47 36.13 -0.31 45.82 -0.42 55.78C-0.53 73.35 9.88 90.77 28.13 103.58C36.92 109.98 42.88 120.32 44.53 132.02C44.66 133.24 45.63 134.12 46.71 133.98C47.79 133.84 48.56 132.73 48.43 131.51C48.43 131.45 48.42 131.4 48.41 131.35C46.57 118.36 39.95 106.88 30.19 99.79C22.13 94.12 3.37 78.5 3.51 55.81C3.68 27.5 28.36 4.46 58.52 4.46C88.71 4.46 113.39 27.49 113.53 55.81C113.63 77.63 96.86 92.73 86.85 99.78C77.1 106.87 70.47 118.35 68.62 131.33C68.45 132.55 69.19 133.69 70.26 133.88C70.36 133.89 70.46 133.9 70.56 133.9C71.53 133.9 72.36 133.09 72.5 132C74.17 120.3 80.14 109.97 88.92 103.57C99.63 96.03 117.57 79.78 117.45 55.79C117.36 45.82 114.58 36.12 109.48 27.99C110.81 22.08 113.34 16.6 116.89 12.01C117.65 11.13 117.64 9.72 116.86 8.86Z" fill="#01457A" fill-opacity="1.000000" fill-rule="evenodd"/>
	<path id="Vector" d="M106.73 56.28C106.73 31.15 85.1 10.72 58.49 10.72C31.89 10.72 10.26 31.15 10.26 56.28C10.26 81.4 31.89 101.83 58.49 101.83C85.1 101.83 106.73 81.4 106.73 56.28ZM102.84 56.28C102.82 61.84 101.63 67.31 99.35 72.2C87.12 73.36 74.98 68.99 65.41 60C76.64 52.74 89.23 48.84 102.06 48.64C102.57 51.14 102.83 53.7 102.84 56.28ZM58.49 15.27C78.37 15.27 95.25 27.44 100.85 44.15C87.22 44.52 73.9 48.93 62.12 56.96C49.19 45.98 38.46 41.01 16.51 43.11C22.45 26.95 39.02 15.27 58.49 15.27ZM14.15 56.28C14.16 53.43 14.47 50.59 15.1 47.84C37.74 45.34 47.63 50.08 60.73 61.42C70.26 71.35 82.56 76.88 95.33 76.96C95.82 76.96 96.31 76.94 96.79 76.92C89.08 89.08 74.8 97.28 58.49 97.28C34.05 97.28 14.15 78.88 14.15 56.28Z" fill="#01457A" fill-opacity="1.000000" fill-rule="evenodd"/>
	<path id="Vector" d="M31.7 77.71C31.7 79.19 30.49 80.39 29.02 80.39C27.54 80.39 26.34 79.19 26.34 77.71C26.34 76.23 27.54 75.03 29.02 75.03C30.49 75.03 31.7 76.23 31.7 77.71Z" fill="#01457A" fill-opacity="1.000000" fill-rule="evenodd"/>
	<path id="Vector" d="M20.61 55.97C20.61 54.66 19.49 53.59 18.11 53.59C16.73 53.59 15.62 54.66 15.62 55.97C15.67 62.45 17.83 68.75 21.79 74.02C22.58 75.09 24.14 75.35 25.27 74.6C26.4 73.85 26.67 72.36 25.89 71.29C22.49 66.83 20.65 61.48 20.61 55.97Z" fill="#01457A" fill-opacity="1.000000" fill-rule="evenodd"/>
</svg>
