<svg width="82.000000" height="133.000000" viewBox="0 0 82 133" fill="none" xmlns="http://www.w3.org/2000/svg" xmlns:xlink="http://www.w3.org/1999/xlink">
	<defs/>
	<path id="Vector" d="M80.66 88.45C80.46 87.04 79.32 86.08 78.11 86.3C76.9 86.52 76.07 87.85 76.26 89.26C76.76 92.93 76.9 96.68 76.67 100.39C76.14 108.99 72.39 116.84 66.4 121.93L64.89 123.21C61.95 125.71 58.46 127.03 54.81 127.03C53.49 127.03 52.16 126.86 50.88 126.5L44.98 124.88C33.58 121.76 23.18 114.41 15.7 104.19C12.37 99.64 10.87 96.34 9.72 92.93C9.81 92.59 9.85 92.22 9.8 91.83C9.79 91.72 8.69 80.55 22.25 73.38C31.55 68.46 35.9 60.05 37.41 56.42C47.61 58.06 51.12 61.39 51.38 61.65C51.92 62.32 52.66 62.53 53.43 62.33C53.61 62.28 53.8 62.23 53.98 62.19C61.11 60.45 68.47 64.86 71.47 72.68C71.98 73.99 73.29 74.57 74.41 73.99C75.54 73.4 76.04 71.87 75.54 70.57C73.83 66.14 70.97 62.42 67.41 59.94C67.41 59.93 67.41 59.92 67.41 59.92C67.86 58.25 68.09 56.51 68.09 54.75C68.09 54.4 68.08 54.05 68.06 53.7L69.6 53.7C70.83 53.7 71.83 52.54 71.83 51.12C71.83 49.69 70.83 48.53 69.6 48.53L67.09 48.53C66.51 46.81 65.72 45.23 64.73 43.83L65.74 42.66C66.61 41.65 66.61 40.01 65.74 39C64.87 37.99 63.46 37.99 62.59 39L61.42 40.35C59.62 38.96 57.54 38.01 55.3 37.65C58.25 34.91 62.12 33.61 66.84 33.79C67.45 33.82 68.03 33.56 68.47 33.07C68.9 32.58 69.15 31.91 69.15 31.21L69.15 21.36C69.15 20.01 68.26 18.89 67.1 18.78C66.74 18.75 62.57 18.38 57.15 19.13C54.73 13.69 51.32 9.64 47.4 7.39L48.97 4.66C49.66 3.47 49.38 1.87 48.36 1.07C47.34 0.28 45.96 0.59 45.27 1.78L43.02 5.69C42.06 5.49 41.08 5.38 40.08 5.38C39.51 5.38 38.94 5.41 38.38 5.48L38.38 2.37C38.38 0.94 37.38 -0.22 36.15 -0.22C34.92 -0.22 33.93 0.94 33.93 2.37L33.93 6.79C31.84 7.78 29.86 9.27 28.05 11.25C26.7 12.73 25.49 14.44 24.42 16.33C23.58 14.42 21.87 13.1 19.9 13.1L13.86 13.1C11.07 13.1 8.8 15.74 8.8 18.98L8.8 45.42C7.68 46.43 6.6 47.62 5.57 48.99C0.69 55.45 -0.28 63.93 -0.23 69.9C-0.18 76.65 1.22 83.53 3.44 87.95C3.78 88.99 4.08 90 4.37 90.98C5.87 95.96 7.28 100.67 12.31 107.54C20.4 118.59 31.64 126.54 43.96 129.92L49.85 131.54C51.48 131.98 53.14 132.21 54.81 132.21C59.41 132.21 63.8 130.54 67.52 127.39L69.02 126.11C76.08 120.12 80.48 110.88 81.11 100.76C81.36 96.66 81.21 92.52 80.66 88.45ZM53.49 57.03C52.6 56.3 51.07 55.27 48.68 54.23C48.86 51.74 49.48 47.05 51.57 42.8C52.11 42.7 52.67 42.65 53.22 42.65C58.96 42.65 63.64 48.08 63.64 54.75C63.64 55.78 63.52 56.79 63.31 57.78C60.15 56.59 56.76 56.32 53.49 57.03ZM64.69 23.85L64.69 28.64C59.18 28.91 54.63 31.05 51.15 35.01C46.26 40.57 44.78 48.3 44.34 52.69C42.21 52.07 39.68 51.52 36.69 51.1C36.01 50.37 35.34 49.68 34.67 49.04C34.67 48.97 34.67 48.91 34.67 48.85C34.67 41.9 36.61 36.31 40.41 32.23C47.66 24.46 59.87 23.8 64.69 23.85ZM40.08 10.55C41.2 10.55 42.3 10.74 43.37 11.1L43.37 11.1C46.92 12.31 50.13 15.44 52.49 20.04C47.32 21.33 41.72 23.8 37.41 28.41C33.3 32.8 30.94 38.51 30.36 45.4C28.54 44.09 26.74 43.08 24.96 42.38L24.96 27.42C25 27.32 25.04 27.22 25.06 27.1C27.52 17.2 33.56 10.55 40.08 10.55ZM13.26 18.98C13.26 18.59 13.53 18.28 13.86 18.28L19.9 18.28C20.24 18.28 20.51 18.59 20.51 18.98L20.51 41.27C19.77 41.19 19.03 41.17 18.29 41.21C16.55 41.3 14.87 41.71 13.26 42.44L13.26 18.98ZM8.92 52.4C11.8 48.58 15.02 46.56 18.49 46.38C22.92 46.15 28.01 48.94 33.27 54.48C31.91 57.58 28.13 64.59 20.41 68.67C11.89 73.18 8.25 79.29 6.7 83.62C6.68 83.7 6.65 83.77 6.63 83.84C3.81 76.6 2.3 61.17 8.92 52.4Z" fill="#01457A" fill-opacity="1.000000" fill-rule="evenodd"/>
</svg>
